<svg xmlns="http://www.w3.org/2000/svg" viewBox="0 0 24.15 19.63">
	<defs>
	  <style>.twit-cls-1{fill:#384259;}</style>
  </defs>
  <title>svg_twit</title>
	<path class="twit-cls-1" d="M7.6,19.63A14,14,0,0,0,21.7,5.53q0-.32,0-.64a10.08,10.08,0,0,0,2.47-2.57,9.89,9.89,0,0,1-2.85.78A5,5,0,0,0,23.49.36a9.93,9.93,0,0,1-3.15,1.2A5,5,0,0,0,11.9,6.09,14.07,14.07,0,0,1,1.68.91,5,5,0,0,0,3.22,7.52,4.92,4.92,0,0,1,1,6.9s0,0,0,.06a5,5,0,0,0,4,4.86,4.95,4.95,0,0,1-2.24.08,5,5,0,0,0,4.63,3.44,9.94,9.94,0,0,1-6.15,2.12A10.09,10.09,0,0,1,0,17.4a14,14,0,0,0,7.6,2.23"/>
</svg>