<svg xmlns="http://www.w3.org/2000/svg" viewBox="0 0 22.7 22.7">
	<defs>
  	<style>.insta-cls-1{fill:#384259;}</style>
  </defs>
  <title>svg_insta</title>
	<path class="insta-cls-1" d="M11.35,2c3,0,3.39,0,4.59.07A6.29,6.29,0,0,1,18,2.5,3.76,3.76,0,0,1,20.2,4.66a6.24,6.24,0,0,1,.39,2.11c.06,1.2.07,1.56.07,4.59s0,3.39-.07,4.59A6.25,6.25,0,0,1,20.2,18,3.76,3.76,0,0,1,18,20.2a6.29,6.29,0,0,1-2.11.39c-1.2.06-1.56.07-4.59.07s-3.39,0-4.59-.07a6.29,6.29,0,0,1-2.11-.39,3.51,3.51,0,0,1-1.3-.85A3.5,3.5,0,0,1,2.5,18a6.25,6.25,0,0,1-.39-2.11C2.06,14.74,2,14.38,2,11.35s0-3.39.07-4.59A6.24,6.24,0,0,1,2.5,4.66a3.51,3.51,0,0,1,.85-1.31,3.53,3.53,0,0,1,1.3-.85,6.29,6.29,0,0,1,2.11-.39C8,2.06,8.32,2,11.35,2m0-2C8.27,0,7.88,0,6.67.07A8.35,8.35,0,0,0,3.92.6a5.58,5.58,0,0,0-2,1.31,5.56,5.56,0,0,0-1.31,2A8.3,8.3,0,0,0,.07,6.67C0,7.88,0,8.27,0,11.35S0,14.82.07,16A8.3,8.3,0,0,0,.6,18.79a5.55,5.55,0,0,0,1.31,2,5.55,5.55,0,0,0,2,1.31,8.3,8.3,0,0,0,2.76.53c1.21.06,1.6.07,4.68.07s3.47,0,4.68-.07a8.3,8.3,0,0,0,2.76-.53,5.81,5.81,0,0,0,3.32-3.32A8.3,8.3,0,0,0,22.63,16c.06-1.21.07-1.6.07-4.68s0-3.47-.07-4.68a8.3,8.3,0,0,0-.53-2.76,5.56,5.56,0,0,0-1.31-2,5.58,5.58,0,0,0-2-1.31A8.35,8.35,0,0,0,16,.07C14.82,0,14.43,0,11.35,0"/>
	<path class="insta-cls-1" d="M11.35,5.52a5.83,5.83,0,1,0,5.83,5.83,5.83,5.83,0,0,0-5.83-5.83m0,9.61a3.78,3.78,0,1,1,3.78-3.78,3.78,3.78,0,0,1-3.78,3.78"/>
	<path class="insta-cls-1" d="M18.77,5.29a1.36,1.36,0,1,1-1.36-1.36,1.36,1.36,0,0,1,1.36,1.36"/>
</svg>