<svg xmlns="http://www.w3.org/2000/svg" viewBox="0 0 628 51.63">
	<defs>
	  <style>.logo-cls-1{fill:#be9a5c;}</style>
  </defs>
  <title>svg_haymaker-logo</title>
		<path class="logo-cls-1" d="M44.74,51.18V31.63a.45.45,0,0,0-.45-.45H13.13a.45.45,0,0,0-.45.45V51.18a.45.45,0,0,1-.45.45H.45A.45.45,0,0,1,0,51.18V.46A.45.45,0,0,1,.45,0H12.24a.45.45,0,0,1,.45.45v19a.45.45,0,0,0,.45.45H44.3a.45.45,0,0,0,.45-.45V.46A.45.45,0,0,1,45.19,0H57a.45.45,0,0,1,.45.45V51.18a.45.45,0,0,1-.45.45H45.19A.45.45,0,0,1,44.74,51.18Z"/>
		<path class="logo-cls-1" d="M190.56,33.74V51.18a.45.45,0,0,1-.45.45H178.32a.45.45,0,0,1-.45-.45V33.74a.45.45,0,0,0-.07-.24L157.2.7a.45.45,0,0,1,.38-.69h12.79a.45.45,0,0,1,.38.21L183.88,21a.45.45,0,0,0,.76,0L197.69.22a.45.45,0,0,1,.38-.21h12.79a.45.45,0,0,1,.38.69L190.63,33.5A.45.45,0,0,0,190.56,33.74Z"/>
		<path class="logo-cls-1" d="M286.7,51.18V28.75a.45.45,0,0,0-.85-.21L274,51.38a.45.45,0,0,1-.4.24H266a.45.45,0,0,1-.4-.24L253.73,28.54a.45.45,0,0,0-.85.21V51.18a.45.45,0,0,1-.45.45H240.65a.45.45,0,0,1-.45-.45V.46a.45.45,0,0,1,.45-.45h11.74a.45.45,0,0,1,.4.25l16.6,33.66a.45.45,0,0,0,.8,0L286.79.26a.45.45,0,0,1,.4-.25h11.74a.45.45,0,0,1,.45.45V51.18a.45.45,0,0,1-.45.45H287.14A.45.45,0,0,1,286.7,51.18Z"/>
		<path class="logo-cls-1" d="M487.36,51.18V.46a.45.45,0,0,1,.45-.45H534a.45.45,0,0,1,.45.45V10.87a.45.45,0,0,1-.45.45H500.49a.45.45,0,0,0-.45.45V19.5a.45.45,0,0,0,.45.45h30.29a.45.45,0,0,1,.45.45V30.81a.45.45,0,0,1-.45.45H500.49a.45.45,0,0,0-.45.45v8.16a.45.45,0,0,0,.45.45H534a.45.45,0,0,1,.45.45V51.18a.45.45,0,0,1-.45.45H487.81A.45.45,0,0,1,487.36,51.18Z"/>
		<path class="logo-cls-1" d="M613.45,51.37l-8.89-18.7a.45.45,0,0,0-.4-.26H582a.45.45,0,0,0-.45.45V51.18a.45.45,0,0,1-.45.45H569.35a.45.45,0,0,1-.45-.45V.46a.45.45,0,0,1,.45-.45h38.57c11.45,0,17.61,8.12,17.61,16.6a14.8,14.8,0,0,1-8,13.28.44.44,0,0,0-.19.6L627.95,51a.45.45,0,0,1-.4.65H613.86A.45.45,0,0,1,613.45,51.37Zm-6.11-40H582a.45.45,0,0,0-.45.45v9.54a.45.45,0,0,0,.45.45h25.3a5.23,5.23,0,1,0,0-10.44Z"/>
		<path class="logo-cls-1" d="M443.29,51.54l13.65,0a.45.45,0,0,0,.38-.68L439.69,21a.45.45,0,0,1,0-.52L456.55.74a.45.45,0,0,0-.34-.74H441.88a.45.45,0,0,0-.35.17L424.87,20.66a.45.45,0,0,1-.8-.28V.53a.45.45,0,0,0-.45-.45h-11.7a.45.45,0,0,0-.45.45V51a.45.45,0,0,0,.45.45h11.7a.45.45,0,0,0,.45-.45v-12a.45.45,0,0,1,.11-.29l6.19-7.28a.45.45,0,0,1,.73.06l11.8,19.75A.45.45,0,0,0,443.29,51.54Z"/>
		<path class="logo-cls-1" d="M368.79,51.63h12.3a.45.45,0,0,0,.42-.6L363,.31a.45.45,0,0,0-.42-.29H348a.45.45,0,0,0-.42.29L329,51a.45.45,0,0,0,.42.6h12.3a.45.45,0,0,0,.42-.31l3.3-9.85a.45.45,0,0,1,.42-.31h18.73a.45.45,0,0,1,.42.31l3.3,9.85A.45.45,0,0,0,368.79,51.63ZM349.34,30l5.12-15.28a.45.45,0,0,1,.42-.31h.79a.45.45,0,0,1,.42.31L361.22,30a.45.45,0,0,1-.42.59h-11A.45.45,0,0,1,349.34,30Z"/>
		<path class="logo-cls-1" d="M126.57,51.63h12.3a.45.45,0,0,0,.42-.6L120.75.31a.45.45,0,0,0-.42-.29H105.78a.45.45,0,0,0-.42.29L86.81,51a.45.45,0,0,0,.42.6h12.3a.45.45,0,0,0,.42-.31l3.3-9.85a.45.45,0,0,1,.42-.31h18.73a.45.45,0,0,1,.42.31l3.3,9.85A.45.45,0,0,0,126.57,51.63ZM107.11,30l5.12-15.28a.45.45,0,0,1,.42-.31h.79a.45.45,0,0,1,.42.31L119,30a.45.45,0,0,1-.42.59h-11A.45.45,0,0,1,107.11,30Z"/>
</svg>